<svg width="32" height="38" viewBox="0 0 32 38" fill="none" xmlns="http://www.w3.org/2000/svg">
<path d="M26.059 19.9096C26.078 18.4745 26.4684 17.0675 27.194 15.8193C27.9196 14.5712 28.9568 13.5225 30.2091 12.7709C29.4135 11.6616 28.364 10.7488 27.1439 10.1048C25.9238 9.46081 24.5667 9.10346 23.1804 9.06111C20.2231 8.75805 17.3562 10.7887 15.8492 10.7887C14.3131 10.7887 11.9929 9.0912 9.49441 9.14138C7.87833 9.19235 6.30333 9.65116 4.92287 10.4731C3.54241 11.295 2.40356 12.4521 1.61731 13.8315C-1.78851 19.5885 0.751928 28.0494 4.01448 32.7029C5.64681 34.9817 7.55452 37.527 10.0508 37.4368C12.4935 37.3378 13.4058 35.9161 16.3543 35.9161C19.2755 35.9161 20.1314 37.4368 22.6783 37.3794C25.2995 37.3378 26.9509 35.0905 28.526 32.7903C29.6988 31.1666 30.6013 29.3721 31.2 27.4732C29.6772 26.8444 28.3777 25.7919 27.4635 24.4469C26.5492 23.1018 26.0608 21.5238 26.059 19.9096Z" fill="#060707"/>
<path d="M21.2484 6.00152C22.6775 4.32654 23.3816 2.17363 23.2111 0C21.0277 0.22389 19.0109 1.24269 17.5624 2.8534C16.8542 3.64028 16.3118 4.55571 15.9662 5.54737C15.6206 6.53902 15.4786 7.58746 15.5482 8.63273C16.6403 8.64371 17.7208 8.41261 18.7081 7.95684C19.6955 7.50107 20.564 6.83251 21.2484 6.00152Z" fill="#060707"/>
</svg>
