<svg width="16" height="16" viewBox="0 0 16 16" fill="none" xmlns="http://www.w3.org/2000/svg">
<path d="M13.3333 8.66667C13.3333 12 11 13.6667 8.22667 14.6333C8.08145 14.6826 7.9237 14.6802 7.78001 14.6267C5.00001 13.6667 2.66667 12 2.66667 8.66667V4C2.66667 3.82319 2.73691 3.65362 2.86193 3.5286C2.98696 3.40358 3.15653 3.33334 3.33334 3.33334C4.66667 3.33334 6.33334 2.53334 7.49334 1.52C7.63457 1.39934 7.81424 1.33304 8.00001 1.33304C8.18577 1.33304 8.36544 1.39934 8.50667 1.52C9.67334 2.54 11.3333 3.33334 12.6667 3.33334C12.8435 3.33334 13.0131 3.40358 13.1381 3.5286C13.2631 3.65362 13.3333 3.82319 13.3333 4V8.66667Z" stroke="#155DFC" stroke-width="1.33333" stroke-linecap="round" stroke-linejoin="round"/>
</svg>
