<svg width="41" height="37" viewBox="0 0 41 37" fill="none" xmlns="http://www.w3.org/2000/svg">
<g filter="url(#filter0_dd_80_9866)">
<path d="M28.03 13.0179C28.0493 18.0188 24.5583 20.5328 20.4032 21.9992C20.1856 22.0739 19.9489 22.0712 19.733 21.9918C15.5566 20.5676 12.0463 18.0807 12.027 13.0797L12 6.07841C11.9989 5.81314 12.1033 5.55834 12.2902 5.37004C12.477 5.18174 12.731 5.07538 12.9963 5.07436C14.9967 5.06663 17.4925 3.85674 19.2269 2.32974C19.4381 2.14788 19.7073 2.04737 19.986 2.0463C20.2647 2.04522 20.5346 2.14365 20.7472 2.32386C22.5035 3.84739 24.9985 5.02799 26.9989 5.02026C27.2642 5.01924 27.519 5.12363 27.7073 5.31048C27.8956 5.49732 28.0019 5.75132 28.003 6.01658L28.03 13.0179Z" fill="url(#paint0_linear_80_9866)"/>
</g>
<defs>
<filter id="filter0_dd_80_9866" x="0" y="0.0462952" width="40.03" height="44.007" filterUnits="userSpaceOnUse" color-interpolation-filters="sRGB">
<feFlood flood-opacity="0" result="BackgroundImageFix"/>
<feColorMatrix in="SourceAlpha" type="matrix" values="0 0 0 0 0 0 0 0 0 0 0 0 0 0 0 0 0 0 127 0" result="hardAlpha"/>
<feMorphology radius="4" operator="erode" in="SourceAlpha" result="effect1_dropShadow_80_9866"/>
<feOffset dy="4"/>
<feGaussianBlur stdDeviation="3"/>
<feComposite in2="hardAlpha" operator="out"/>
<feColorMatrix type="matrix" values="0 0 0 0 0 0 0 0 0 0 0 0 0 0 0 0 0 0 0.1 0"/>
<feBlend mode="normal" in2="BackgroundImageFix" result="effect1_dropShadow_80_9866"/>
<feColorMatrix in="SourceAlpha" type="matrix" values="0 0 0 0 0 0 0 0 0 0 0 0 0 0 0 0 0 0 127 0" result="hardAlpha"/>
<feMorphology radius="3" operator="erode" in="SourceAlpha" result="effect2_dropShadow_80_9866"/>
<feOffset dy="10"/>
<feGaussianBlur stdDeviation="7.5"/>
<feComposite in2="hardAlpha" operator="out"/>
<feColorMatrix type="matrix" values="0 0 0 0 0 0 0 0 0 0 0 0 0 0 0 0 0 0 0.1 0"/>
<feBlend mode="normal" in2="effect1_dropShadow_80_9866" result="effect2_dropShadow_80_9866"/>
<feBlend mode="normal" in="SourceGraphic" in2="effect2_dropShadow_80_9866" result="shape"/>
</filter>
<linearGradient id="paint0_linear_80_9866" x1="12.0231" y1="12.0808" x2="28.0262" y2="12.0189" gradientUnits="userSpaceOnUse">
<stop stop-color="#2B7FFF"/>
<stop offset="1" stop-color="#FF6900"/>
</linearGradient>
</defs>
</svg>
