<svg width="28" height="28" viewBox="0 0 28 28" fill="none" xmlns="http://www.w3.org/2000/svg">
<path d="M22.1667 12.8333H5.83333C4.54467 12.8333 3.5 13.8779 3.5 15.1666V23.3333C3.5 24.6219 4.54467 25.6666 5.83333 25.6666H22.1667C23.4553 25.6666 24.5 24.6219 24.5 23.3333V15.1666C24.5 13.8779 23.4553 12.8333 22.1667 12.8333Z" stroke="white" stroke-width="2.33333" stroke-linecap="round" stroke-linejoin="round"/>
<path d="M8.16699 12.8333V8.16659C8.16699 6.61949 8.78157 5.13576 9.87554 4.0418C10.9695 2.94783 12.4532 2.33325 14.0003 2.33325C15.5474 2.33325 17.0312 2.94783 18.1251 4.0418C19.2191 5.13576 19.8337 6.61949 19.8337 8.16659V12.8333" stroke="white" stroke-width="2.33333" stroke-linecap="round" stroke-linejoin="round"/>
</svg>
