<svg width="28" height="28" viewBox="0 0 28 28" fill="none" xmlns="http://www.w3.org/2000/svg">
<path d="M2.40593 14.4059C2.3087 14.144 2.3087 13.8559 2.40593 13.5939C3.35291 11.2978 4.96037 9.33448 7.0245 7.95298C9.08863 6.57148 11.5165 5.83398 14.0003 5.83398C16.484 5.83398 18.9119 6.57148 20.976 7.95298C23.0402 9.33448 24.6476 11.2978 25.5946 13.5939C25.6918 13.8559 25.6918 14.144 25.5946 14.4059C24.6476 16.7021 23.0402 18.6654 20.976 20.0469C18.9119 21.4284 16.484 22.1659 14.0003 22.1659C11.5165 22.1659 9.08863 21.4284 7.0245 20.0469C4.96037 18.6654 3.35291 16.7021 2.40593 14.4059Z" stroke="white" stroke-width="2.33333" stroke-linecap="round" stroke-linejoin="round"/>
<path d="M14 17.5C15.933 17.5 17.5 15.933 17.5 14C17.5 12.067 15.933 10.5 14 10.5C12.067 10.5 10.5 12.067 10.5 14C10.5 15.933 12.067 17.5 14 17.5Z" stroke="white" stroke-width="2.33333" stroke-linecap="round" stroke-linejoin="round"/>
</svg>
