<svg width="28" height="28" viewBox="0 0 28 28" fill="none" xmlns="http://www.w3.org/2000/svg">
<path d="M17.5003 2.33325H7.00033C6.38149 2.33325 5.78799 2.57908 5.35041 3.01667C4.91282 3.45425 4.66699 4.04775 4.66699 4.66659V23.3333C4.66699 23.9521 4.91282 24.5456 5.35041 24.9832C5.78799 25.4208 6.38149 25.6666 7.00033 25.6666H21.0003C21.6192 25.6666 22.2127 25.4208 22.6502 24.9832C23.0878 24.5456 23.3337 23.9521 23.3337 23.3333V8.16659L17.5003 2.33325Z" stroke="white" stroke-width="2.33333" stroke-linecap="round" stroke-linejoin="round"/>
<path d="M16.333 2.33325V6.99992C16.333 7.61876 16.5788 8.21225 17.0164 8.64983C17.454 9.08742 18.0475 9.33325 18.6663 9.33325H23.333" stroke="white" stroke-width="2.33333" stroke-linecap="round" stroke-linejoin="round"/>
<path d="M10.5 17.5001L12.8333 19.8334L17.5 15.1667" stroke="white" stroke-width="2.33333" stroke-linecap="round" stroke-linejoin="round"/>
</svg>
