<svg width="33" height="38" viewBox="0 0 33 38" fill="none" xmlns="http://www.w3.org/2000/svg">
<path d="M15.2955 17.8797L0.139771 34.3287C0.141194 34.3316 0.141194 34.336 0.142617 34.3389C0.608094 36.125 2.20239 37.4395 4.09561 37.4395C4.8529 37.4395 5.56321 37.2298 6.17246 36.863L6.22086 36.8339L23.2798 26.768L15.2955 17.8797Z" fill="#EA4335"/>
<path d="M30.6278 15.0791L30.6135 15.0689L23.2485 10.7033L14.951 18.2539L23.2784 26.7666L30.6036 22.4447C31.8876 21.7344 32.7601 20.35 32.7601 18.7546C32.7601 17.1679 31.9004 15.7909 30.6278 15.0791Z" fill="#FBBC04"/>
<path d="M0.139501 3.10943C0.0483981 3.45296 0 3.81397 0 4.18662V33.2534C0 33.626 0.0483982 33.987 0.140924 34.3291L15.8162 18.3008L0.139501 3.10943Z" fill="#4285F4"/>
<path d="M15.4076 18.7197L23.2509 10.7005L6.21195 0.598137C5.59274 0.218206 4.86961 -0.000141144 4.09666 -0.000141144C2.20344 -0.000141144 0.606303 1.31724 0.140827 3.10479C0.140827 3.10625 0.139404 3.10771 0.139404 3.10916L15.4076 18.7197Z" fill="#34A853"/>
</svg>
