<svg width="41" height="37" viewBox="0 0 41 37" fill="none" xmlns="http://www.w3.org/2000/svg">
<g filter="url(#filter0_dd_120_1426)">
<path d="M28.0301 13.0179C28.0495 18.0188 24.5585 20.5328 20.4033 21.9992C20.1857 22.0739 19.949 22.0712 19.7331 21.9918C15.5568 20.5676 12.0464 18.0807 12.0271 13.0797L12.0001 6.07841C11.9991 5.81314 12.1034 5.55834 12.2903 5.37004C12.4771 5.18174 12.7311 5.07538 12.9964 5.07436C14.9968 5.06663 17.4926 3.85674 19.2271 2.32974C19.4383 2.14788 19.7074 2.04737 19.9861 2.0463C20.2648 2.04522 20.5348 2.14365 20.7473 2.32386C22.5036 3.84739 24.9987 5.02799 26.999 5.02026C27.2643 5.01924 27.5191 5.12363 27.7074 5.31048C27.8957 5.49732 28.0021 5.75132 28.0031 6.01658L28.0301 13.0179Z" fill="url(#paint0_linear_120_1426)"/>
</g>
<defs>
<filter id="filter0_dd_120_1426" x="0" y="0.0462952" width="40.0303" height="44.007" filterUnits="userSpaceOnUse" color-interpolation-filters="sRGB">
<feFlood flood-opacity="0" result="BackgroundImageFix"/>
<feColorMatrix in="SourceAlpha" type="matrix" values="0 0 0 0 0 0 0 0 0 0 0 0 0 0 0 0 0 0 127 0" result="hardAlpha"/>
<feMorphology radius="4" operator="erode" in="SourceAlpha" result="effect1_dropShadow_120_1426"/>
<feOffset dy="4"/>
<feGaussianBlur stdDeviation="3"/>
<feComposite in2="hardAlpha" operator="out"/>
<feColorMatrix type="matrix" values="0 0 0 0 0 0 0 0 0 0 0 0 0 0 0 0 0 0 0.1 0"/>
<feBlend mode="normal" in2="BackgroundImageFix" result="effect1_dropShadow_120_1426"/>
<feColorMatrix in="SourceAlpha" type="matrix" values="0 0 0 0 0 0 0 0 0 0 0 0 0 0 0 0 0 0 127 0" result="hardAlpha"/>
<feMorphology radius="3" operator="erode" in="SourceAlpha" result="effect2_dropShadow_120_1426"/>
<feOffset dy="10"/>
<feGaussianBlur stdDeviation="7.5"/>
<feComposite in2="hardAlpha" operator="out"/>
<feColorMatrix type="matrix" values="0 0 0 0 0 0 0 0 0 0 0 0 0 0 0 0 0 0 0.1 0"/>
<feBlend mode="normal" in2="effect1_dropShadow_120_1426" result="effect2_dropShadow_120_1426"/>
<feBlend mode="normal" in="SourceGraphic" in2="effect2_dropShadow_120_1426" result="shape"/>
</filter>
<linearGradient id="paint0_linear_120_1426" x1="12.0233" y1="12.0808" x2="28.0263" y2="12.0189" gradientUnits="userSpaceOnUse">
<stop stop-color="#2B7FFF"/>
<stop offset="1" stop-color="#FF6900"/>
</linearGradient>
</defs>
</svg>
